TITLE ""
FILE "Step1_Track53.mp3" MP3
  TRACK 01 AUDIO
    TITLE "Step1_Track53_001"
    INDEX 01 00:00:00
  TRACK 02 AUDIO
    TITLE "Step1_Track53_002"
    INDEX 01 00:00:22
  TRACK 03 AUDIO
    TITLE "Step1_Track53_003"
    INDEX 01 00:01:70
  TRACK 04 AUDIO
    TITLE "Step1_Track53_004"
    INDEX 01 00:02:43
  TRACK 05 AUDIO
    TITLE "Step1_Track53_005"
    INDEX 01 00:03:69
  TRACK 06 AUDIO
    TITLE "Step1_Track53_006"
    INDEX 01 00:04:24
  TRACK 07 AUDIO
    TITLE "Step1_Track53_007"
    INDEX 01 00:06:25
  TRACK 08 AUDIO
    TITLE "Step1_Track53_008"
    INDEX 01 00:07:10
  TRACK 09 AUDIO
    TITLE "Step1_Track53_009"
    INDEX 01 00:08:35
  TRACK 10 AUDIO
    TITLE "Step1_Track53_010"
    INDEX 01 00:08:65
  TRACK 11 AUDIO
    TITLE "Step1_Track53_011"
    INDEX 01 00:11:26
  TRACK 12 AUDIO
    TITLE "Step1_Track53_012"
    INDEX 01 00:12:02
  TRACK 13 AUDIO
    TITLE "Step1_Track53_013"
    INDEX 01 00:13:40
  TRACK 14 AUDIO
    TITLE "Step1_Track53_014"
    INDEX 01 00:13:66
  TRACK 15 AUDIO
    TITLE "Step1_Track53_015"
    INDEX 01 00:16:41
  TRACK 16 AUDIO
    TITLE "Step1_Track53_016"
    INDEX 01 00:17:19
  TRACK 17 AUDIO
    TITLE "Step1_Track53_017"
    INDEX 01 00:18:45
  TRACK 18 AUDIO
    TITLE "Step1_Track53_018"
    INDEX 01 00:18:73
  TRACK 19 AUDIO
    TITLE "Step1_Track53_019"
    INDEX 01 00:20:70
  TRACK 20 AUDIO
    TITLE "Step1_Track53_020"
    INDEX 01 00:21:46
  TRACK 21 AUDIO
    TITLE "Step1_Track53_021"
    INDEX 01 00:23:03
  TRACK 22 AUDIO
    TITLE "Step1_Track53_022"
    INDEX 01 00:23:37
  TRACK 23 AUDIO
    TITLE "Step1_Track53_023"
    INDEX 01 00:25:53
  TRACK 24 AUDIO
    TITLE "Step1_Track53_024"
    INDEX 01 00:26:33
  TRACK 25 AUDIO
    TITLE "Step1_Track53_025"
    INDEX 01 00:27:62
  TRACK 26 AUDIO
    TITLE "Step1_Track53_026"
    INDEX 01 00:28:13
  TRACK 27 AUDIO
    TITLE "Step1_Track53_027"
    INDEX 01 00:30:25
  TRACK 28 AUDIO
    TITLE "Step1_Track53_028"
    INDEX 01 00:31:03
  TRACK 29 AUDIO
    TITLE "Step1_Track53_029"
    INDEX 01 00:32:34
  TRACK 30 AUDIO
    TITLE "Step1_Track53_030"
    INDEX 01 00:32:59
  TRACK 31 AUDIO
    TITLE "Step1_Track53_031"
    INDEX 01 00:34:58
  TRACK 32 AUDIO
    TITLE "Step1_Track53_032"
    INDEX 01 00:35:32
  TRACK 33 AUDIO
    TITLE "Step1_Track53_033"
    INDEX 01 00:36:53
  TRACK 34 AUDIO
    TITLE "Step1_Track53_034"
    INDEX 01 00:37:02
  TRACK 35 AUDIO
    TITLE "Step1_Track53_035"
    INDEX 01 00:38:56
  TRACK 36 AUDIO
    TITLE "Step1_Track53_036"
    INDEX 01 00:39:36
  TRACK 37 AUDIO
    TITLE "Step1_Track53_037"
    INDEX 01 00:40:73
  TRACK 38 AUDIO
    TITLE "Step1_Track53_038"
    INDEX 01 00:41:23
  TRACK 39 AUDIO
    TITLE "Step1_Track53_039"
    INDEX 01 00:42:52
  TRACK 40 AUDIO
    TITLE "Step1_Track53_040"
    INDEX 01 00:43:34
  TRACK 41 AUDIO
    TITLE "Step1_Track53_041"
    INDEX 01 00:44:64
  TRACK 42 AUDIO
    TITLE "Step1_Track53_042"
    INDEX 01 00:45:15
  TRACK 43 AUDIO
    TITLE "Step1_Track53_043"
    INDEX 01 00:47:18
  TRACK 44 AUDIO
    TITLE "Step1_Track53_044"
    INDEX 01 00:47:71
  TRACK 45 AUDIO
    TITLE "Step1_Track53_045"
    INDEX 01 00:49:36
  TRACK 46 AUDIO
    TITLE "Step1_Track53_046"
    INDEX 01 00:49:64
  TRACK 47 AUDIO
    TITLE "Step1_Track53_047"
    INDEX 01 00:52:35
  TRACK 48 AUDIO
    TITLE "Step1_Track53_048"
    INDEX 01 00:53:12
  TRACK 49 AUDIO
    TITLE "Step1_Track53_049"
    INDEX 01 00:54:39
  TRACK 50 AUDIO
    TITLE "Step1_Track53_050"
    INDEX 01 00:54:69
  TRACK 51 AUDIO
    TITLE "Step1_Track53_051"
    INDEX 01 00:57:04
  TRACK 52 AUDIO
    TITLE "Step1_Track53_052"
    INDEX 01 00:57:55
  TRACK 53 AUDIO
    TITLE "Step1_Track53_053"
    INDEX 01 00:59:31
  TRACK 54 AUDIO
    TITLE "Step1_Track53_054"
    INDEX 01 00:59:62
  TRACK 55 AUDIO
    TITLE "Step1_Track53_055"
    INDEX 01 01:01:16
  TRACK 56 AUDIO
    TITLE "Step1_Track53_056"
    INDEX 01 01:01:71
  TRACK 57 AUDIO
    TITLE "Step1_Track53_057"
    INDEX 01 01:03:48
  TRACK 58 AUDIO
    TITLE "Step1_Track53_058"
    INDEX 01 01:04:01
  TRACK 59 AUDIO
    TITLE "Step1_Track53_059"
    INDEX 01 01:06:29
  TRACK 60 AUDIO
    TITLE "Step1_Track53_060"
    INDEX 01 01:07:05
  TRACK 61 AUDIO
    TITLE "Step1_Track53_061"
    INDEX 01 01:08:55
  TRACK 62 AUDIO
    TITLE "Step1_Track53_062"
    INDEX 01 01:09:10
  TRACK 63 AUDIO
    TITLE "Step1_Track53_063"
    INDEX 01 01:10:42
  TRACK 64 AUDIO
    TITLE "Step1_Track53_064"
    INDEX 01 01:11:14
  TRACK 65 AUDIO
    TITLE "Step1_Track53_065"
    INDEX 01 01:12:67
  TRACK 66 AUDIO
    TITLE "Step1_Track53_066"
    INDEX 01 01:13:13
  TRACK 67 AUDIO
    TITLE "Step1_Track53_067"
    INDEX 01 01:15:24
  TRACK 68 AUDIO
    TITLE "Step1_Track53_068"
    INDEX 01 01:15:71
  TRACK 69 AUDIO
    TITLE "Step1_Track53_069"
    INDEX 01 01:17:50
  TRACK 70 AUDIO
    TITLE "Step1_Track53_070"
    INDEX 01 01:18:08
  TRACK 71 AUDIO
    TITLE "Step1_Track53_071"
    INDEX 01 01:20:01
  TRACK 72 AUDIO
    TITLE "Step1_Track53_072"
    INDEX 01 01:20:50
  TRACK 73 AUDIO
    TITLE "Step1_Track53_073"
    INDEX 01 01:22:22
  TRACK 74 AUDIO
    TITLE "Step1_Track53_074"
    INDEX 01 01:22:49
  TRACK 75 AUDIO
    TITLE "Step1_Track53_075"
    INDEX 01 01:25:01
  TRACK 76 AUDIO
    TITLE "Step1_Track53_076"
    INDEX 01 01:25:52
  TRACK 77 AUDIO
    TITLE "Step1_Track53_077"
    INDEX 01 01:27:25
  TRACK 78 AUDIO
    TITLE "Step1_Track53_078"
    INDEX 01 01:27:54
  TRACK 79 AUDIO
    TITLE "Step1_Track53_079"
    INDEX 01 01:29:53
  TRACK 80 AUDIO
    TITLE "Step1_Track53_080"
    INDEX 01 01:30:27
  TRACK 81 AUDIO
    TITLE "Step1_Track53_081"
    INDEX 01 01:31:60
  TRACK 82 AUDIO
    TITLE "Step1_Track53_082"
    INDEX 01 01:32:16
  TRACK 83 AUDIO
    TITLE "Step1_Track53_083"
    INDEX 01 01:34:33
  TRACK 84 AUDIO
    TITLE "Step1_Track53_084"
    INDEX 01 01:35:11
  TRACK 85 AUDIO
    TITLE "Step1_Track53_085"
    INDEX 01 01:36:59
  TRACK 86 AUDIO
    TITLE "Step1_Track53_086"
    INDEX 01 01:37:08
  TRACK 87 AUDIO
    TITLE "Step1_Track53_087"
    INDEX 01 01:39:36
  TRACK 88 AUDIO
    TITLE "Step1_Track53_088"
    INDEX 01 01:40:12
  TRACK 89 AUDIO
    TITLE "Step1_Track53_089"
    INDEX 01 01:41:66
  TRACK 90 AUDIO
    TITLE "Step1_Track53_090"
    INDEX 01 01:42:23
  TRACK 91 AUDIO
    TITLE "Step1_Track53_091"
    INDEX 01 01:44:37
  TRACK 92 AUDIO
    TITLE "Step1_Track53_092"
    INDEX 01 01:45:15
  TRACK 93 AUDIO
    TITLE "Step1_Track53_093"
    INDEX 01 01:46:69
  TRACK 94 AUDIO
    TITLE "Step1_Track53_094"
    INDEX 01 01:47:22
  TRACK 95 AUDIO
    TITLE "Step1_Track53_095"
    INDEX 01 01:49:23
  TRACK 96 AUDIO
    TITLE "Step1_Track53_096"
    INDEX 01 01:50:03
  TRACK 97 AUDIO
    TITLE "Step1_Track53_097"
    INDEX 01 01:51:59
  TRACK 98 AUDIO
    TITLE "Step1_Track53_098"
    INDEX 01 01:52:15
  TRACK 99 AUDIO
    TITLE "Step1_Track53_099"
    INDEX 01 01:54:04
  TRACK 100 AUDIO
    TITLE "Step1_Track53_100"
    INDEX 01 01:54:59
  TRACK 101 AUDIO
    TITLE "Step1_Track53_101"
    INDEX 01 01:56:33
  TRACK 102 AUDIO
    TITLE "Step1_Track53_102"
    INDEX 01 01:56:72
  TRACK 103 AUDIO
    TITLE "Step1_Track53_103"
    INDEX 01 01:59:11
  TRACK 104 AUDIO
    TITLE "Step1_Track53_104"
    INDEX 01 01:59:72
  TRACK 105 AUDIO
    TITLE "Step1_Track53_105"
    INDEX 01 02:01:57
  TRACK 106 AUDIO
    TITLE "Step1_Track53_106"
    INDEX 01 02:02:12
  TRACK 107 AUDIO
    TITLE "Step1_Track53_107"
    INDEX 01 02:04:09
  TRACK 108 AUDIO
    TITLE "Step1_Track53_108"
    INDEX 01 02:04:65
  TRACK 109 AUDIO
    TITLE "Step1_Track53_109"
    INDEX 01 02:06:43
  TRACK 110 AUDIO
    TITLE "Step1_Track53_110"
    INDEX 01 02:06:64
  TRACK 111 AUDIO
    TITLE "Step1_Track53_111"
    INDEX 01 02:08:69
  TRACK 112 AUDIO
    TITLE "Step1_Track53_112"
    INDEX 01 02:09:43
  TRACK 113 AUDIO
    TITLE "Step1_Track53_113"
    INDEX 01 02:11:09
  TRACK 114 AUDIO
    TITLE "Step1_Track53_114"
    INDEX 01 02:11:42
  TRACK 115 AUDIO
    TITLE "Step1_Track53_115"
    INDEX 01 02:14:09
  TRACK 116 AUDIO
    TITLE "Step1_Track53_116"
    INDEX 01 02:14:66
  TRACK 117 AUDIO
    TITLE "Step1_Track53_117"
    INDEX 01 02:16:47
  TRACK 118 AUDIO
    TITLE "Step1_Track53_118"
    INDEX 01 02:17:05
  TRACK 119 AUDIO
    TITLE "Step1_Track53_119"
    INDEX 01 02:19:41
  TRACK 120 AUDIO
    TITLE "Step1_Track53_120"
    INDEX 01 02:20:12
  TRACK 121 AUDIO
    TITLE "Step1_Track53_121"
    INDEX 01 02:21:44
  TRACK 122 AUDIO
    TITLE "Step1_Track53_122"
    INDEX 01 02:22:01
  TRACK 123 AUDIO
    TITLE "Step1_Track53_123"
    INDEX 01 02:25:03
  TRACK 124 AUDIO
    TITLE "Step1_Track53_124"
    INDEX 01 02:25:56
  TRACK 125 AUDIO
    TITLE "Step1_Track53_125"
    INDEX 01 02:27:29
  TRACK 126 AUDIO
    TITLE "Step1_Track53_126"
    INDEX 01 02:27:66
  TRACK 127 AUDIO
    TITLE "Step1_Track53_127"
    INDEX 01 02:29:67
  TRACK 128 AUDIO
    TITLE "Step1_Track53_128"
    INDEX 01 02:30:51
  TRACK 129 AUDIO
    TITLE "Step1_Track53_129"
    INDEX 01 02:32:38
  TRACK 130 AUDIO
    TITLE "Step1_Track53_130"
    INDEX 01 02:32:68
  TRACK 131 AUDIO
    TITLE "Step1_Track53_131"
    INDEX 01 02:35:25
  TRACK 132 AUDIO
    TITLE "Step1_Track53_132"
    INDEX 01 02:36:05
  TRACK 133 AUDIO
    TITLE "Step1_Track53_133"
    INDEX 01 02:37:61
  TRACK 134 AUDIO
    TITLE "Step1_Track53_134"
    INDEX 01 02:38:17
  TRACK 135 AUDIO
    TITLE "Step1_Track53_135"
    INDEX 01 02:40:46
  TRACK 136 AUDIO
    TITLE "Step1_Track53_136"
    INDEX 01 02:41:25
  TRACK 137 AUDIO
    TITLE "Step1_Track53_137"
    INDEX 01 02:43:07
  TRACK 138 AUDIO
    TITLE "Step1_Track53_138"
    INDEX 01 02:43:42
  TRACK 139 AUDIO
    TITLE "Step1_Track53_139"
    INDEX 01 02:46:07
  TRACK 140 AUDIO
    TITLE "Step1_Track53_140"
    INDEX 01 02:46:64
  TRACK 141 AUDIO
    TITLE "Step1_Track53_141"
    INDEX 01 02:48:39
  TRACK 142 AUDIO
    TITLE "Step1_Track53_142"
    INDEX 01 02:49:03
  TRACK 143 AUDIO
    TITLE "Step1_Track53_143"
    INDEX 01 02:53:09
  TRACK 144 AUDIO
    TITLE "Step1_Track53_144"
    INDEX 01 02:53:62
  TRACK 145 AUDIO
    TITLE "Step1_Track53_145"
    INDEX 01 02:55:41
  TRACK 146 AUDIO
    TITLE "Step1_Track53_146"
    INDEX 01 02:55:61
  TRACK 147 AUDIO
    TITLE "Step1_Track53_147"
    INDEX 01 02:59:12
  TRACK 148 AUDIO
    TITLE "Step1_Track53_148"
    INDEX 01 02:59:61
  TRACK 149 AUDIO
    TITLE "Step1_Track53_149"
    INDEX 01 03:01:42
  TRACK 150 AUDIO
    TITLE "Step1_Track53_150"
    INDEX 01 03:02:00
  TRACK 151 AUDIO
    TITLE "Step1_Track53_151"
    INDEX 01 03:03:45
  TRACK 152 AUDIO
    TITLE "Step1_Track53_152"
    INDEX 01 03:04:24
  TRACK 153 AUDIO
    TITLE "Step1_Track53_153"
    INDEX 01 03:05:71
  TRACK 154 AUDIO
    TITLE "Step1_Track53_154"
    INDEX 01 03:06:19
  TRACK 155 AUDIO
    TITLE "Step1_Track53_155"
    INDEX 01 03:08:46
  TRACK 156 AUDIO
    TITLE "Step1_Track53_156"
    INDEX 01 03:09:26
  TRACK 157 AUDIO
    TITLE "Step1_Track53_157"
    INDEX 01 03:11:05
  TRACK 158 AUDIO
    TITLE "Step1_Track53_158"
    INDEX 01 03:11:40
  TRACK 159 AUDIO
    TITLE "Step1_Track53_159"
    INDEX 01 03:12:59
  TRACK 160 AUDIO
    TITLE "Step1_Track53_160"
    INDEX 01 03:13:29
  TRACK 161 AUDIO
    TITLE "Step1_Track53_161"
    INDEX 01 03:14:62
  TRACK 162 AUDIO
    TITLE "Step1_Track53_162"
    INDEX 01 03:15:16
  TRACK 163 AUDIO
    TITLE "Step1_Track53_163"
    INDEX 01 03:17:15
  TRACK 164 AUDIO
    TITLE "Step1_Track53_164"
    INDEX 01 03:17:68
  TRACK 165 AUDIO
    TITLE "Step1_Track53_165"
    INDEX 01 03:19:46
  TRACK 166 AUDIO
    TITLE "Step1_Track53_166"
    INDEX 01 03:20:02
  TRACK 167 AUDIO
    TITLE "Step1_Track53_167"
    INDEX 01 03:21:35
  TRACK 168 AUDIO
    TITLE "Step1_Track53_168"
    INDEX 01 03:22:15
  TRACK 169 AUDIO
    TITLE "Step1_Track53_169"
    INDEX 01 03:23:73
  TRACK 170 AUDIO
    TITLE "Step1_Track53_170"
    INDEX 01 03:24:29
  TRACK 171 AUDIO
    TITLE "Step1_Track53_171"
    INDEX 01 03:26:14
  TRACK 172 AUDIO
    TITLE "Step1_Track53_172"
    INDEX 01 03:26:71
  TRACK 173 AUDIO
    TITLE "Step1_Track53_173"
    INDEX 01 03:28:48
  TRACK 174 AUDIO
    TITLE "Step1_Track53_174"
    INDEX 01 03:29:05
  TRACK 175 AUDIO
    TITLE "Step1_Track53_175"
    INDEX 01 03:30:40
  TRACK 176 AUDIO
    TITLE "Step1_Track53_176"
    INDEX 01 03:31:23
  TRACK 177 AUDIO
    TITLE "Step1_Track53_177"
    INDEX 01 03:33:05
  TRACK 178 AUDIO
    TITLE "Step1_Track53_178"
    INDEX 01 03:33:38
  TRACK 179 AUDIO
    TITLE "Step1_Track53_179"
    INDEX 01 03:35:15
  TRACK 180 AUDIO
    TITLE "Step1_Track53_180"
    INDEX 01 03:35:70
  TRACK 181 AUDIO
    TITLE "Step1_Track53_181"
    INDEX 01 03:37:57
  TRACK 182 AUDIO
    TITLE "Step1_Track53_182"
    INDEX 01 03:38:19
  TRACK 183 AUDIO
    TITLE "Step1_Track53_183"
    INDEX 01 03:40:36
  TRACK 184 AUDIO
    TITLE "Step1_Track53_184"
    INDEX 01 03:41:20
  TRACK 185 AUDIO
    TITLE "Step1_Track53_185"
    INDEX 01 03:43:01
  TRACK 186 AUDIO
    TITLE "Step1_Track53_186"
    INDEX 01 03:43:25
  TRACK 187 AUDIO
    TITLE "Step1_Track53_187"
    INDEX 01 03:44:18
  TRACK 188 AUDIO
    TITLE "Step1_Track53_188"
    INDEX 01 03:44:36
  TRACK 189 AUDIO
    TITLE "Step1_Track53_189"
    INDEX 01 03:46:39
  TRACK 190 AUDIO
    TITLE "Step1_Track53_190"
    INDEX 01 03:46:66
  TRACK 191 AUDIO
    TITLE "Step1_Track53_191"
    INDEX 01 03:47:64
  TRACK 192 AUDIO
    TITLE "Step1_Track53_192"
    INDEX 01 03:47:71
  TRACK 193 AUDIO
    TITLE "Step1_Track53_193"
    INDEX 01 03:51:20
  TRACK 194 AUDIO
    TITLE "Step1_Track53_194"
    INDEX 01 03:52:00
  TRACK 195 AUDIO
    TITLE "Step1_Track53_195"
    INDEX 01 03:53:60
  TRACK 196 AUDIO
    TITLE "Step1_Track53_196"
    INDEX 01 03:54:15
  TRACK 197 AUDIO
    TITLE "Step1_Track53_197"
    INDEX 01 03:55:69
  TRACK 198 AUDIO
    TITLE "Step1_Track53_198"
    INDEX 01 03:56:51
  TRACK 199 AUDIO
    TITLE "Step1_Track53_199"
    INDEX 01 03:58:16
  TRACK 200 AUDIO
    TITLE "Step1_Track53_200"
    INDEX 01 03:58:50
  TRACK 201 AUDIO
    TITLE "Step1_Track53_201"
    INDEX 01 04:00:31
  TRACK 202 AUDIO
    TITLE "Step1_Track53_202"
    INDEX 01 04:01:09
  TRACK 203 AUDIO
    TITLE "Step1_Track53_203"
    INDEX 01 04:02:59
  TRACK 204 AUDIO
    TITLE "Step1_Track53_204"
    INDEX 01 04:03:23
  TRACK 205 AUDIO
    TITLE "Step1_Track53_205"
    INDEX 01 04:05:50
  TRACK 206 AUDIO
    TITLE "Step1_Track53_206"
    INDEX 01 04:06:33
  TRACK 207 AUDIO
    TITLE "Step1_Track53_207"
    INDEX 01 04:07:70
  TRACK 208 AUDIO
    TITLE "Step1_Track53_208"
    INDEX 01 04:08:26
  TRACK 209 AUDIO
    TITLE "Step1_Track53_209"
    INDEX 01 04:10:47
  TRACK 210 AUDIO
    TITLE "Step1_Track53_210"
    INDEX 01 04:11:21
  TRACK 211 AUDIO
    TITLE "Step1_Track53_211"
    INDEX 01 04:12:71
  TRACK 212 AUDIO
    TITLE "Step1_Track53_212"
    INDEX 01 04:13:10
  TRACK 213 AUDIO
    TITLE "Step1_Track53_213"
    INDEX 01 04:14:07
  TRACK 214 AUDIO
    TITLE "Step1_Track53_214"
    INDEX 01 04:14:25
  TRACK 215 AUDIO
    TITLE "Step1_Track53_215"
    INDEX 01 04:17:65
  TRACK 216 AUDIO
    TITLE "Step1_Track53_216"
    INDEX 01 04:18:15
  TRACK 217 AUDIO
    TITLE "Step1_Track53_217"
    INDEX 01 04:19:16
  TRACK 218 AUDIO
    TITLE "Step1_Track53_218"
    INDEX 01 04:19:30
  TRACK 219 AUDIO
    TITLE "Step1_Track53_219"
    INDEX 01 04:21:29
  TRACK 220 AUDIO
    TITLE "Step1_Track53_220"
    INDEX 01 04:22:11
  TRACK 221 AUDIO
    TITLE "Step1_Track53_221"
    INDEX 01 04:23:71
  TRACK 222 AUDIO
    TITLE "Step1_Track53_222"
    INDEX 01 04:24:25
  TRACK 223 AUDIO
    TITLE "Step1_Track53_223"
    INDEX 01 04:25:21
  TRACK 224 AUDIO
    TITLE "Step1_Track53_224"
    INDEX 01 04:25:35
  TRACK 225 AUDIO
    TITLE "Step1_Track53_225"
    INDEX 01 04:27:57
  TRACK 226 AUDIO
    TITLE "Step1_Track53_226"
    INDEX 01 04:28:43
  TRACK 227 AUDIO
    TITLE "Step1_Track53_227"
    INDEX 01 04:29:42
  TRACK 228 AUDIO
    TITLE "Step1_Track53_228"
    INDEX 01 04:29:56
  TRACK 229 AUDIO
    TITLE "Step1_Track53_229"
    INDEX 01 04:31:35
